<?xml version="1.0" encoding="UTF-8"?>
<svg id="Layer_1" data-name="Layer 1" xmlns="http://www.w3.org/2000/svg" viewBox="0 0 1080 1080">
  <defs>
    <style>
      .cls-1 {
        fill: #76ffad;
      }

      .cls-2 {
        fill: #0e99de;
      }

      .cls-3 {
        fill: #ccbad5;
      }
    </style>
  </defs>
  <path class="cls-2" d="M192.6,564.32h323.08v323.08c0,63.3-51.39,114.69-114.69,114.69h-208.39c-63.3,0-114.69-51.39-114.69-114.69v-208.39c0-63.3,51.39-114.69,114.69-114.69Z"/>
  <path class="cls-1" d="M887.4,1002.09h-208.39c-63.3,0-114.69-51.39-114.69-114.69v-323.08h323.08c63.3,0,114.69,51.39,114.69,114.69v208.39c0,63.3-51.39,114.69-114.69,114.69Z"/>
  <path class="cls-3" d="M887.4,515.68h-323.08V192.6c0-63.3,51.39-114.69,114.69-114.69h208.39c63.3,0,114.69,51.39,114.69,114.69v208.39c0,63.3-51.39,114.69-114.69,114.69Z"/>
</svg>